<svg width="30" height="30" viewBox="0 0 30 30" fill="none" xmlns="http://www.w3.org/2000/svg">
<rect width="30" height="30" rx="15" fill="white"/>
<path d="M15 7.5C10.875 7.5 7.5 10.875 7.5 15C7.5 19.125 10.875 22.5 15 22.5C19.125 22.5 22.5 19.125 22.5 15C22.5 10.875 19.125 7.5 15 7.5ZM21.1875 14.625C19.5625 14.375 18.125 14.375 16.75 14.5625C16.625 14.1875 16.4375 13.875 16.25 13.5C17.6875 12.875 18.875 12 19.6875 10.9375C20.5625 12 21.125 13.25 21.1875 14.625ZM18.75 10.125C18 11.125 16.9375 11.875 15.625 12.4375C15 11.25 14.3125 10.125 13.5 9C14 8.875 14.5 8.8125 15 8.8125C16.4375 8.8125 17.75 9.3125 18.75 10.125ZM12.1875 9.5C13 10.5625 13.75 11.6875 14.375 12.875C12.875 13.3125 11.0625 13.5 9 13.5625C9.4375 11.75 10.625 10.3125 12.1875 9.5ZM8.8125 15V14.8125C11.1875 14.8125 13.3125 14.5625 15 14C15.125 14.3125 15.3125 14.625 15.4375 14.875C13.3125 15.5625 11.5625 16.875 10.25 18.9375C9.375 17.875 8.8125 16.5 8.8125 15ZM11.1875 19.875C12.4375 17.9375 14 16.6875 15.9375 16.125C16.5 17.625 16.9375 19.1875 17.1875 20.8125C15.125 21.5625 12.875 21.1875 11.1875 19.875ZM18.4375 20.125C18.1875 18.625 17.75 17.1875 17.25 15.8125C18.4375 15.625 19.6875 15.6875 21.125 15.9375C20.8125 17.6875 19.875 19.1875 18.4375 20.125Z" fill="#1F1F1F"/>
</svg>
