<svg width="24" height="24" viewBox="0 0 24 24" fill="none" xmlns="http://www.w3.org/2000/svg">
<path d="M11.6662 0C5.2498 0 0 5.2498 0 11.6662C0 18.0827 5.2498 23.3325 11.6662 23.3325C18.0827 23.3325 23.3325 18.0827 23.3325 11.6662C23.3325 5.2498 18.0827 0 11.6662 0ZM21.2909 11.0829C18.7632 10.694 16.5272 10.694 14.3883 10.9857C14.1939 10.4024 13.9023 9.91629 13.6106 9.33298C15.8466 8.3608 17.6938 6.99974 18.9576 5.34702C20.3187 6.99974 21.1936 8.94411 21.2909 11.0829ZM17.4993 4.08318C16.3327 5.63868 14.68 6.8053 12.6384 7.68027C11.6662 5.83311 10.5968 4.08318 9.33298 2.33325C10.1107 2.13881 10.8885 2.04159 11.6662 2.04159C13.9023 2.04159 15.9438 2.81934 17.4993 4.08318ZM7.29139 3.11099C8.55523 4.76371 9.72186 6.51364 10.694 8.3608C8.3608 9.04133 5.54146 9.33298 2.33325 9.4302C3.01378 6.61086 4.86093 4.37484 7.29139 3.11099ZM2.04159 11.6662V11.3746C5.7359 11.3746 9.04133 10.9857 11.6662 10.1107C11.8607 10.5968 12.1523 11.0829 12.3468 11.4718C9.04133 12.5412 6.31921 14.5828 4.27762 17.791C2.91656 16.1383 2.04159 13.9995 2.04159 11.6662ZM5.7359 19.2493C7.68027 16.2355 10.1107 14.2911 13.1245 13.4162C13.9995 15.7494 14.68 18.1799 15.0689 20.7076C11.8607 21.8742 8.3608 21.2909 5.7359 19.2493ZM17.0132 19.6381C16.6244 17.3049 15.9438 15.0689 15.1661 12.9301C17.0132 12.6384 18.9576 12.7356 21.1936 13.1245C20.7076 15.8466 19.2493 18.1799 17.0132 19.6381Z" fill="white"/>
</svg>
