<svg width="24" height="24" viewBox="0 0 24 24" fill="none" xmlns="http://www.w3.org/2000/svg">
<path d="M11.6662 2.13881C14.7772 2.13881 15.1661 2.13881 16.4299 2.23603C19.6381 2.33325 21.0964 3.88874 21.1936 6.99974C21.2909 8.26358 21.2909 8.55523 21.2909 11.6662C21.2909 14.7772 21.2909 15.1661 21.1936 16.3327C21.0964 19.4437 19.5409 20.9992 16.4299 21.0964C15.1661 21.1936 14.8744 21.1936 11.6662 21.1936C8.55523 21.1936 8.16636 21.1936 6.99974 21.0964C3.79152 20.9992 2.33325 19.4437 2.23603 16.3327C2.13881 15.0689 2.13881 14.7772 2.13881 11.6662C2.13881 8.55523 2.13881 8.16636 2.23603 6.99974C2.33325 3.88874 3.88874 2.33325 6.99974 2.23603C8.16636 2.13881 8.55523 2.13881 11.6662 2.13881ZM11.6662 0C8.45801 0 8.06914 0 6.90252 0.0972186C2.6249 0.291656 0.291656 2.6249 0.0972186 6.90252C0 8.06914 0 8.45801 0 11.6662C0 14.8744 0 15.2633 0.0972186 16.4299C0.291656 20.7076 2.6249 23.0408 6.90252 23.2352C8.06914 23.3325 8.45801 23.3325 11.6662 23.3325C14.8744 23.3325 15.2633 23.3325 16.4299 23.2352C20.7076 23.0408 23.0408 20.7076 23.2352 16.4299C23.3325 15.2633 23.3325 14.8744 23.3325 11.6662C23.3325 8.45801 23.3325 8.06914 23.2352 6.90252C23.0408 2.6249 20.7076 0.291656 16.4299 0.0972186C15.2633 0 14.8744 0 11.6662 0ZM11.6662 5.63868C8.3608 5.63868 5.63868 8.3608 5.63868 11.6662C5.63868 14.9717 8.3608 17.6938 11.6662 17.6938C14.9717 17.6938 17.6938 14.9717 17.6938 11.6662C17.6938 8.3608 14.9717 5.63868 11.6662 5.63868ZM11.6662 15.555C9.52742 15.555 7.77748 13.805 7.77748 11.6662C7.77748 9.52742 9.52742 7.77748 11.6662 7.77748C13.805 7.77748 15.555 9.52742 15.555 11.6662C15.555 13.805 13.805 15.555 11.6662 15.555ZM17.8882 4.08318C17.1105 4.08318 16.5272 4.66649 16.5272 5.44424C16.5272 6.22199 17.1105 6.8053 17.8882 6.8053C18.666 6.8053 19.2493 6.22199 19.2493 5.44424C19.2493 4.66649 18.666 4.08318 17.8882 4.08318Z" fill="white"/>
</svg>
